<svg width="24" height="24" viewBox="0 0 24 24" fill="none" xmlns="http://www.w3.org/2000/svg">
<path fill-rule="evenodd" clip-rule="evenodd" d="M2 11C2 12.6565 2.49724 14.2084 3.36471 15.5416L2.40432 19.3831C2.22123 20.1155 2.88462 20.7789 3.617 20.5958L8.40143 19.3997C9.51807 19.7874 10.7314 20 12 20C17.5228 20 22 15.9706 22 11C22 6.02944 17.5228 2 12 2C6.47715 2 2 6.02944 2 11ZM5.30499 16.0266C5.43978 15.4875 5.34416 14.9166 5.04106 14.4508C4.37232 13.4231 4 12.2469 4 11C4 7.32701 7.3783 4 12 4C16.6217 4 20 7.32701 20 11C20 14.673 16.6217 18 12 18C10.9555 18 9.96379 17.825 9.0575 17.5103C8.69016 17.3828 8.29361 17.3651 7.91636 17.4594L4.74884 18.2513L5.30499 16.0266Z" fill="black"/>
</svg>
